<?xml version="1.0" encoding="UTF-8"?>
<svg width="1200pt" height="1200pt" version="1.1" viewBox="0 0 1200 1200" xmlns="http://www.w3.org/2000/svg">
 <g>
  <path d="m862.5 956.25h-329.12l283.25-230.77c31.875-25.977 36.301-72.617 9.8359-103.94l-43.246-51.148c-26.477-31.312-73.961-35.645-105.85-9.6562l-289.69 236.04c-0.007813 0.007812-0.027344 0.046874-0.046876 0.066406-1.7539 1.4141-3.1133 3.2344-4.2656 5.1758-0.30078 0.50781-0.58203 0.98438-0.81641 1.5273-0.22656 0.44141-0.55469 0.82422-0.72266 1.3125l-61.855 162.94c-0.34766 0.91797-0.44922 1.8555-0.64844 2.8047-0.085938 0.34766-0.16797 0.68359-0.23438 1.0312-0.11328 0.71094-0.17969 1.4141-0.20703 2.1367-0.03125 0.39844-0.13281 0.80469-0.13281 1.2344 0 10.004 7.8672 18.113 17.738 18.648 0.039063 0 0.066407 0.007812 0.10156 0.007812 0.30078 0.019531 0.60156 0.09375 0.91016 0.09375h525c10.352 0 18.75-8.3984 18.75-18.75s-8.3984-18.75-18.75-18.75zm-160.1-365.91c15.262-12.422 37.988-10.367 50.645 4.6328l43.238 51.141c12.676 14.992 10.547 37.293-4.7148 49.727l-15.703 12.777-89.164-105.48zm-45.852 37.367 89.176 105.49-228.75 186.39-89.176-105.49zm-249.82 221.74 69.395 82.098-107.5 18.254z"/>
  <path d="m862.5 206.25h-525c-10.359 0-18.75-8.3984-18.75-18.75s8.3906-18.75 18.75-18.75h525c10.352 0 18.75 8.3984 18.75 18.75s-8.3984 18.75-18.75 18.75z"/>
  <path d="m862.5 281.25h-525c-10.359 0-18.75-8.3984-18.75-18.75s8.3906-18.75 18.75-18.75h525c10.352 0 18.75 8.3984 18.75 18.75s-8.3984 18.75-18.75 18.75z"/>
  <path d="m862.5 356.25h-525c-10.359 0-18.75-8.3984-18.75-18.75s8.3906-18.75 18.75-18.75h525c10.352 0 18.75 8.3984 18.75 18.75s-8.3984 18.75-18.75 18.75z"/>
  <path d="m862.5 431.25h-525c-10.359 0-18.75-8.3984-18.75-18.75s8.3906-18.75 18.75-18.75h525c10.352 0 18.75 8.3984 18.75 18.75s-8.3984 18.75-18.75 18.75z"/>
  <path d="m862.5 506.25h-525c-10.359 0-18.75-8.3984-18.75-18.75s8.3906-18.75 18.75-18.75h525c10.352 0 18.75 8.3984 18.75 18.75s-8.3984 18.75-18.75 18.75z"/>
  <path d="m1012.5 37.5c20.68 0 37.5 16.82 37.5 37.5v1050c0 20.68-16.82 37.5-37.5 37.5h-825c-20.68 0-37.5-16.82-37.5-37.5v-1050c0-20.68 16.82-37.5 37.5-37.5h825m0-37.5h-825c-41.418 0-75 33.582-75 75v1050c0 41.418 33.582 75 75 75h825c41.418 0 75-33.582 75-75v-1050c0-41.418-33.582-75-75-75z"/>
 </g>
</svg>
