<?xml version="1.0" encoding="UTF-8"?>
<svg width="1200pt" height="1200pt" version="1.1" viewBox="0 0 1200 1200" xmlns="http://www.w3.org/2000/svg">
 <g>
  <path d="m448.63 601.88c0.33594 0.19141 0.67188 0.39453 1.0078 0.60156 7.668 4.6562 15.562 8.9766 23.664 12.926 0.63672 0.28906 1.2617 0.58984 1.8945 0.875 3.2266 1.5352 6.4922 3.0234 9.7812 4.4414 1.0312 0.44531 2.0625 0.91016 3.1094 1.3438 3.7812 1.5859 7.5859 3.1094 11.449 4.5352 0.60156 0.21484 1.1992 0.40625 1.8008 0.64844 3.3711 1.2227 6.793 2.375 10.223 3.4688 1.5 0.49219 2.9883 0.9375 4.4883 1.3906 2.7227 0.82812 5.4727 1.5977 8.2305 2.3398 1.3906 0.37109 2.7852 0.78125 4.1992 1.1523 3.793 0.94922 7.6211 1.8359 11.473 2.6641 1.5 0.3125 3 0.60156 4.5117 0.88672 2.7969 0.53906 5.6055 1.0312 8.4375 1.5117 1.5117 0.25391 3.0117 0.50391 4.5234 0.73047 4.043 0.60156 8.1016 1.1406 12.203 1.5586 0.9375 0.10938 1.8711 0.16797 2.8086 0.25391 3.5156 0.32422 7.043 0.61328 10.598 0.80469 1.2617 0.070313 2.5078 0.15625 3.7695 0.20312 4.3906 0.20312 8.7969 0.33594 13.234 0.33594 4.4414 0 8.8438-0.14453 13.223-0.33594 1.2617-0.046875 2.5078-0.13281 3.7812-0.20312 3.5391-0.20312 7.0547-0.48047 10.57-0.80469 0.9375-0.085938 1.8828-0.14453 2.8086-0.25391 4.0938-0.42188 8.1484-0.96094 12.191-1.5586 1.5234-0.22656 3.0352-0.46875 4.5469-0.73047 2.8203-0.48047 5.6289-0.97266 8.4258-1.5 1.5117-0.30078 3.0234-0.58984 4.5469-0.89844 3.8398-0.81641 7.668-1.7148 11.449-2.6641 1.4297-0.35938 2.832-0.78125 4.2617-1.1641 2.7344-0.74219 5.4492-1.5 8.1367-2.3281 1.5234-0.45703 3.0352-0.91016 4.5352-1.3906 3.3945-1.0938 6.7578-2.2305 10.094-3.4336 0.67188-0.25391 1.3555-0.48047 2.0273-0.71875 3.793-1.4297 7.5586-2.9297 11.293-4.5 1.0547-0.43359 2.125-0.89844 3.1797-1.3555 3.2539-1.4023 6.4922-2.8672 9.6836-4.4023 0.66016-0.30078 1.3203-0.61328 1.9688-0.92578 4.0312-1.957 8.0273-4.0078 11.965-6.1562 0.011719-0.011719 0.035157-0.023438 0.046876-0.023438 3.9258-2.1602 7.7773-4.3906 11.594-6.707 0.35937-0.22656 0.70703-0.44531 1.0664-0.66016 83.785-51.383 139.82-144.02 139.82-249.59 0.019532-161.14-130.64-292.25-291.23-292.25-160.59 0-291.26 131.11-291.26 292.26 0 105.56 56.062 198.23 139.87 249.62z"/>
  <path d="m1109.1 926.05c-53.594-155.54-167.99-253.16-340.07-290.22-3.9102 2.3398-7.8828 4.5859-11.879 6.7695-0.25391 0.13281-0.50391 0.26563-0.75781 0.39453-4.1172 2.2305-8.2578 4.3555-12.457 6.3945-0.66016 0.32422-1.332 0.66016-1.9922 0.98438-4.4141 2.125-8.8555 4.1406-13.344 6.0703-0.67188 0.27734-1.3438 0.53906-2.0156 0.82813-3.707 1.5352-7.4297 3.0117-11.184 4.4141-1.3555 0.50391-2.7227 1.0195-4.0781 1.5117-4.1758 1.5-8.3633 2.9531-12.59 4.2734-1.1055 0.34766-2.2188 0.66016-3.3359 0.99609-3.4922 1.0547-6.9961 2.0508-10.512 3.0117-1.7031 0.44531-3.4219 0.89844-5.1367 1.3203-3.6367 0.89844-7.2852 1.7539-10.969 2.543-1.5469 0.33594-3.1211 0.64844-4.6797 0.97266-3.8281 0.75781-7.668 1.4414-11.52 2.0625-1.6445 0.26562-3.2773 0.52734-4.9336 0.75781-4.1055 0.58984-8.2188 1.1289-12.348 1.5703-0.79297 0.097657-1.5859 0.20312-2.3633 0.26562-4.6445 0.46875-9.3008 0.80469-13.992 1.0938-1.3203 0.058594-2.6406 0.12109-3.9609 0.19141-4.9805 0.22656-9.9492 0.38281-14.941 0.38281-4.9922 0-9.9609-0.16797-14.941-0.38281-1.3086-0.070312-2.6406-0.13281-3.9609-0.19141-4.6797-0.27734-9.3477-0.625-13.992-1.0938-0.78125-0.070312-1.5703-0.17969-2.3633-0.26562-4.1289-0.44531-8.2422-0.98438-12.348-1.5703-1.6562-0.23828-3.2891-0.49219-4.9336-0.75781-3.8516-0.625-7.7031-1.3086-11.52-2.0625-1.5586-0.32422-3.1211-0.63672-4.668-0.97266-3.6836-0.78125-7.332-1.6445-10.98-2.543-1.7148-0.42188-3.4219-0.875-5.125-1.3203-3.5273-0.96094-7.043-1.957-10.535-3.0117-1.1055-0.33594-2.2188-0.64844-3.3125-0.98438-4.2344-1.332-8.4375-2.7852-12.613-4.2852-1.3555-0.49219-2.6992-0.98438-4.043-1.5-3.7695-1.4141-7.5-2.9023-11.23-4.4531-0.66016-0.27734-1.3203-0.52734-1.9805-0.80469-4.5-1.9219-8.9531-3.9492-13.367-6.0703-0.66016-0.32422-1.3086-0.64844-1.9688-0.97266-4.2109-2.0391-8.3633-4.1875-12.504-6.4219-0.23828-0.14453-0.48047-0.25391-0.71875-0.38281-4.0078-2.1836-7.9922-4.4297-11.914-6.7695-172.56 37.152-287.1 135.2-340.5 291.47-31.281 91.602-31.578 177.41-29.996 212.71h1079c1.5703-35.531 1.2109-122.17-30.434-213.95z"/>
 </g>
</svg>
